<svg width="231" height="19" viewBox="0 0 231 19" fill="none" xmlns="http://www.w3.org/2000/svg">
<path d="M4.95455 14.9318V3.68182H6.86364V14.9318H4.95455ZM0.284091 10.2614V8.35227H11.5341V10.2614H0.284091ZM21.2436 18.2386C20.1186 18.2386 19.1158 18.0455 18.2351 17.6591C17.3601 17.2727 16.6641 16.7358 16.147 16.0483C15.6357 15.3551 15.3572 14.5511 15.3118 13.6364H17.4595C17.505 14.1989 17.6982 14.6847 18.0391 15.0938C18.38 15.4972 18.826 15.8097 19.3771 16.0312C19.9283 16.2528 20.5391 16.3636 21.2095 16.3636C21.9595 16.3636 22.6243 16.233 23.2038 15.9716C23.7834 15.7102 24.2379 15.3466 24.5675 14.8807C24.897 14.4148 25.0618 13.875 25.0618 13.2614C25.0618 12.6193 24.9027 12.054 24.5845 11.5653C24.2663 11.071 23.8004 10.6847 23.1868 10.4062C22.5732 10.1278 21.8232 9.98864 20.9368 9.98864H19.5391V8.11364H20.9368C21.63 8.11364 22.2379 7.98864 22.7607 7.73864C23.2891 7.48864 23.701 7.13636 23.9964 6.68182C24.2976 6.22727 24.4482 5.69318 24.4482 5.07954C24.4482 4.48864 24.3175 3.97443 24.0561 3.53693C23.7947 3.09943 23.4254 2.75852 22.9482 2.5142C22.4766 2.26989 21.9197 2.14773 21.2777 2.14773C20.6754 2.14773 20.1072 2.25852 19.5732 2.48011C19.0447 2.69602 18.6129 3.01136 18.2777 3.42614C17.9425 3.83523 17.7607 4.32955 17.7322 4.90909H15.6868C15.7209 3.99432 15.9964 3.19318 16.5135 2.50568C17.0305 1.8125 17.7067 1.27273 18.5419 0.886364C19.3828 0.5 20.3061 0.306818 21.3118 0.306818C22.3913 0.306818 23.3175 0.525568 24.0902 0.963068C24.8629 1.39489 25.4567 1.96591 25.8714 2.67614C26.2862 3.38636 26.4936 4.15341 26.4936 4.97727C26.4936 5.96023 26.2351 6.7983 25.718 7.49148C25.2067 8.18466 24.5107 8.66477 23.63 8.93182V9.06818C24.7322 9.25 25.593 9.71875 26.2124 10.4744C26.8317 11.2244 27.1413 12.1534 27.1413 13.2614C27.1413 14.2102 26.8828 15.0625 26.3658 15.8182C25.8544 16.5682 25.1555 17.1591 24.2692 17.5909C23.3828 18.0227 22.3743 18.2386 21.2436 18.2386ZM36.218 18.2386C35.0476 18.2386 34.0135 18.0312 33.1158 17.6165C32.2237 17.196 31.5277 16.6193 31.0277 15.8864C30.5277 15.1477 30.2805 14.3068 30.2862 13.3636C30.2805 12.625 30.4254 11.9432 30.7209 11.3182C31.0163 10.6875 31.4197 10.1619 31.9311 9.74148C32.4482 9.31534 33.0249 9.04545 33.6612 8.93182V8.82955C32.826 8.61364 32.1612 8.14489 31.6669 7.4233C31.1726 6.69602 30.9283 5.86932 30.9339 4.94318C30.9283 4.05682 31.1527 3.2642 31.6072 2.56534C32.0618 1.86648 32.6868 1.31534 33.4822 0.911931C34.2834 0.508522 35.1953 0.306818 36.218 0.306818C37.2294 0.306818 38.1328 0.508522 38.9283 0.911931C39.7237 1.31534 40.3487 1.86648 40.8033 2.56534C41.2635 3.2642 41.4964 4.05682 41.5021 4.94318C41.4964 5.86932 41.2436 6.69602 40.7436 7.4233C40.2493 8.14489 39.593 8.61364 38.7749 8.82955V8.93182C39.4055 9.04545 39.9737 9.31534 40.4794 9.74148C40.9851 10.1619 41.3885 10.6875 41.6896 11.3182C41.9908 11.9432 42.1442 12.625 42.1499 13.3636C42.1442 14.3068 41.8885 15.1477 41.3828 15.8864C40.8828 16.6193 40.1868 17.196 39.2947 17.6165C38.4084 18.0312 37.3828 18.2386 36.218 18.2386ZM36.218 16.3636C37.0078 16.3636 37.6896 16.2358 38.2635 15.9801C38.8374 15.7244 39.2805 15.3636 39.593 14.8977C39.9055 14.4318 40.0646 13.8864 40.0703 13.2614C40.0646 12.6023 39.8942 12.0199 39.5589 11.5142C39.2237 11.0085 38.7663 10.6108 38.1868 10.321C37.6129 10.0312 36.9567 9.88636 36.218 9.88636C35.4737 9.88636 34.8089 10.0312 34.2237 10.321C33.6442 10.6108 33.1868 11.0085 32.8516 11.5142C32.522 12.0199 32.3601 12.6023 32.3658 13.2614C32.3601 13.8864 32.5107 14.4318 32.8175 14.8977C33.13 15.3636 33.576 15.7244 34.1555 15.9801C34.7351 16.2358 35.4226 16.3636 36.218 16.3636ZM36.218 8.07955C36.843 8.07955 37.397 7.95455 37.88 7.70455C38.3686 7.45455 38.7521 7.10511 39.0305 6.65625C39.3089 6.20739 39.451 5.68182 39.4567 5.07954C39.451 4.48864 39.3118 3.97443 39.0391 3.53693C38.7663 3.09375 38.3885 2.75284 37.9055 2.5142C37.4226 2.26989 36.8601 2.14773 36.218 2.14773C35.5646 2.14773 34.9936 2.26989 34.505 2.5142C34.0163 2.75284 33.6385 3.09375 33.3714 3.53693C33.1044 3.97443 32.9737 4.48864 32.9794 5.07954C32.9737 5.68182 33.1072 6.20739 33.38 6.65625C33.6584 7.10511 34.0419 7.45455 34.5305 7.70455C35.0192 7.95455 35.5817 8.07955 36.218 8.07955ZM57.8594 18.2386C56.5753 18.2386 55.4815 17.8892 54.5781 17.1903C53.6747 16.4858 52.9844 15.4659 52.5071 14.1307C52.0298 12.7898 51.7912 11.1705 51.7912 9.27273C51.7912 7.38636 52.0298 5.77557 52.5071 4.44034C52.9901 3.09943 53.6832 2.0767 54.5866 1.37216C55.4957 0.661931 56.5866 0.306818 57.8594 0.306818C59.1321 0.306818 60.2202 0.661931 61.1236 1.37216C62.0327 2.0767 62.7259 3.09943 63.2031 4.44034C63.6861 5.77557 63.9276 7.38636 63.9276 9.27273C63.9276 11.1705 63.6889 12.7898 63.2116 14.1307C62.7344 15.4659 62.044 16.4858 61.1406 17.1903C60.2372 17.8892 59.1435 18.2386 57.8594 18.2386ZM57.8594 16.3636C59.1321 16.3636 60.1207 15.75 60.8253 14.5227C61.5298 13.2955 61.8821 11.5455 61.8821 9.27273C61.8821 7.76136 61.7202 6.47443 61.3963 5.41193C61.0781 4.34943 60.6179 3.53977 60.0156 2.98295C59.419 2.42614 58.7003 2.14773 57.8594 2.14773C56.598 2.14773 55.6122 2.76989 54.902 4.0142C54.1918 5.25284 53.8366 7.00568 53.8366 9.27273C53.8366 10.7841 53.9957 12.0682 54.3139 13.125C54.6321 14.1818 55.0895 14.9858 55.6861 15.5369C56.2884 16.0881 57.0128 16.3636 57.8594 16.3636ZM72.6207 18.2386C71.6207 18.2386 70.7202 18.0398 69.919 17.642C69.1179 17.2443 68.4759 16.6989 67.9929 16.0057C67.5099 15.3125 67.2457 14.5227 67.2003 13.6364H69.2457C69.3253 14.4261 69.6832 15.0795 70.3196 15.5966C70.9616 16.108 71.7287 16.3636 72.6207 16.3636C73.3366 16.3636 73.973 16.196 74.5298 15.8608C75.0923 15.5256 75.5327 15.0653 75.8509 14.4801C76.1747 13.8892 76.3366 13.2216 76.3366 12.4773C76.3366 11.7159 76.169 11.0369 75.8338 10.4403C75.5043 9.83807 75.0497 9.36364 74.4702 9.01705C73.8906 8.67045 73.2287 8.49432 72.4844 8.48864C71.9503 8.48295 71.402 8.56534 70.8395 8.7358C70.277 8.90057 69.8139 9.11364 69.4503 9.375L67.473 9.13636L68.5298 0.545454H77.598V2.42045H70.3026L69.6889 7.56818H69.7912C70.1491 7.28409 70.598 7.0483 71.1378 6.8608C71.6776 6.6733 72.2401 6.57955 72.8253 6.57955C73.8935 6.57955 74.8452 6.83523 75.6804 7.34659C76.5213 7.85227 77.1804 8.54545 77.6577 9.42614C78.1406 10.3068 78.3821 11.3125 78.3821 12.4432C78.3821 13.5568 78.1321 14.5511 77.6321 15.4261C77.1378 16.2955 76.456 16.983 75.5866 17.4886C74.7173 17.9886 73.7287 18.2386 72.6207 18.2386ZM87.4609 18.2386C86.1768 18.2386 85.0831 17.8892 84.1797 17.1903C83.2763 16.4858 82.5859 15.4659 82.1087 14.1307C81.6314 12.7898 81.3928 11.1705 81.3928 9.27273C81.3928 7.38636 81.6314 5.77557 82.1087 4.44034C82.5916 3.09943 83.2848 2.0767 84.1882 1.37216C85.0973 0.661931 86.1882 0.306818 87.4609 0.306818C88.7337 0.306818 89.8217 0.661931 90.7251 1.37216C91.6342 2.0767 92.3274 3.09943 92.8047 4.44034C93.2876 5.77557 93.5291 7.38636 93.5291 9.27273C93.5291 11.1705 93.2905 12.7898 92.8132 14.1307C92.3359 15.4659 91.6456 16.4858 90.7422 17.1903C89.8388 17.8892 88.745 18.2386 87.4609 18.2386ZM87.4609 16.3636C88.7337 16.3636 89.7223 15.75 90.4268 14.5227C91.1314 13.2955 91.4837 11.5455 91.4837 9.27273C91.4837 7.76136 91.3217 6.47443 90.9979 5.41193C90.6797 4.34943 90.2195 3.53977 89.6172 2.98295C89.0206 2.42614 88.3018 2.14773 87.4609 2.14773C86.1996 2.14773 85.2138 2.76989 84.5036 4.0142C83.7933 5.25284 83.4382 7.00568 83.4382 9.27273C83.4382 10.7841 83.5973 12.0682 83.9155 13.125C84.2337 14.1818 84.6911 14.9858 85.2876 15.5369C85.8899 16.0881 86.6143 16.3636 87.4609 16.3636ZM104.302 8.33523V10.2102H96.6655V8.33523H104.302ZM107.398 14.4205V12.6818L115.068 0.545454H116.33V3.23864H115.477L109.682 12.4091V12.5455H120.011V14.4205H107.398ZM115.614 18V13.892V13.0824V0.545454H117.625V18H115.614ZM128.66 18.2386C127.66 18.2386 126.759 18.0398 125.958 17.642C125.157 17.2443 124.515 16.6989 124.032 16.0057C123.549 15.3125 123.285 14.5227 123.239 13.6364H125.285C125.364 14.4261 125.722 15.0795 126.359 15.5966C127.001 16.108 127.768 16.3636 128.66 16.3636C129.376 16.3636 130.012 16.196 130.569 15.8608C131.131 15.5256 131.572 15.0653 131.89 14.4801C132.214 13.8892 132.376 13.2216 132.376 12.4773C132.376 11.7159 132.208 11.0369 131.873 10.4403C131.543 9.83807 131.089 9.36364 130.509 9.01705C129.93 8.67045 129.268 8.49432 128.523 8.48864C127.989 8.48295 127.441 8.56534 126.879 8.7358C126.316 8.90057 125.853 9.11364 125.489 9.375L123.512 9.13636L124.569 0.545454H133.637V2.42045H126.342L125.728 7.56818H125.83C126.188 7.28409 126.637 7.0483 127.177 6.8608C127.717 6.6733 128.279 6.57955 128.864 6.57955C129.933 6.57955 130.884 6.83523 131.719 7.34659C132.56 7.85227 133.219 8.54545 133.697 9.42614C134.18 10.3068 134.421 11.3125 134.421 12.4432C134.421 13.5568 134.171 14.5511 133.671 15.4261C133.177 16.2955 132.495 16.983 131.626 17.4886C130.756 17.9886 129.768 18.2386 128.66 18.2386ZM143.602 18.2386C142.886 18.2273 142.17 18.0909 141.455 17.8295C140.739 17.5682 140.085 17.1278 139.494 16.5085C138.903 15.8835 138.429 15.0398 138.071 13.9773C137.713 12.9091 137.534 11.5682 137.534 9.95455C137.534 8.40909 137.679 7.03977 137.969 5.84659C138.259 4.64773 138.679 3.6392 139.23 2.82102C139.781 1.99716 140.446 1.37216 141.224 0.946022C142.009 0.519886 142.892 0.306818 143.875 0.306818C144.852 0.306818 145.722 0.502841 146.483 0.894886C147.25 1.28125 147.875 1.82102 148.358 2.5142C148.841 3.20739 149.153 4.00568 149.295 4.90909H147.216C147.023 4.125 146.648 3.47443 146.091 2.95739C145.534 2.44034 144.795 2.18182 143.875 2.18182C142.523 2.18182 141.457 2.76989 140.679 3.94602C139.906 5.12216 139.517 6.77273 139.511 8.89773H139.648C139.966 8.41477 140.344 8.00284 140.781 7.66193C141.224 7.31534 141.713 7.0483 142.247 6.8608C142.781 6.6733 143.347 6.57955 143.943 6.57955C144.943 6.57955 145.858 6.82955 146.688 7.32955C147.517 7.82386 148.182 8.50852 148.682 9.38352C149.182 10.2528 149.432 11.25 149.432 12.375C149.432 13.4545 149.19 14.4432 148.707 15.3409C148.224 16.233 147.545 16.9432 146.67 17.4716C145.801 17.9943 144.778 18.25 143.602 18.2386ZM143.602 16.3636C144.318 16.3636 144.96 16.1847 145.528 15.8267C146.102 15.4687 146.554 14.9886 146.884 14.3864C147.219 13.7841 147.386 13.1136 147.386 12.375C147.386 11.6534 147.224 10.9972 146.901 10.4062C146.582 9.80966 146.142 9.33523 145.58 8.98295C145.023 8.63068 144.386 8.45455 143.67 8.45455C143.131 8.45455 142.628 8.5625 142.162 8.77841C141.696 8.98864 141.287 9.27841 140.935 9.64773C140.588 10.017 140.315 10.4403 140.116 10.9176C139.918 11.3892 139.818 11.8864 139.818 12.4091C139.818 13.1023 139.98 13.75 140.304 14.3523C140.634 14.9545 141.082 15.4403 141.651 15.8097C142.224 16.179 142.875 16.3636 143.602 16.3636ZM160.317 8.33523V10.2102H152.681V8.33523H160.317ZM169.277 18.2386C168.277 18.2386 167.376 18.0398 166.575 17.642C165.774 17.2443 165.132 16.6989 164.649 16.0057C164.166 15.3125 163.902 14.5227 163.857 13.6364H165.902C165.982 14.4261 166.339 15.0795 166.976 15.5966C167.618 16.108 168.385 16.3636 169.277 16.3636C169.993 16.3636 170.629 16.196 171.186 15.8608C171.749 15.5256 172.189 15.0653 172.507 14.4801C172.831 13.8892 172.993 13.2216 172.993 12.4773C172.993 11.7159 172.825 11.0369 172.49 10.4403C172.161 9.83807 171.706 9.36364 171.126 9.01705C170.547 8.67045 169.885 8.49432 169.141 8.48864C168.607 8.48295 168.058 8.56534 167.496 8.7358C166.933 8.90057 166.47 9.11364 166.107 9.375L164.129 9.13636L165.186 0.545454H174.254V2.42045H166.959L166.345 7.56818H166.447C166.805 7.28409 167.254 7.0483 167.794 6.8608C168.334 6.6733 168.896 6.57955 169.482 6.57955C170.55 6.57955 171.501 6.83523 172.337 7.34659C173.178 7.85227 173.837 8.54545 174.314 9.42614C174.797 10.3068 175.038 11.3125 175.038 12.4432C175.038 13.5568 174.788 14.5511 174.288 15.4261C173.794 16.2955 173.112 16.983 172.243 17.4886C171.374 17.9886 170.385 18.2386 169.277 18.2386ZM184.219 18.2386C183.504 18.2273 182.788 18.0909 182.072 17.8295C181.356 17.5682 180.702 17.1278 180.112 16.5085C179.521 15.8835 179.046 15.0398 178.688 13.9773C178.33 12.9091 178.151 11.5682 178.151 9.95455C178.151 8.40909 178.296 7.03977 178.586 5.84659C178.876 4.64773 179.296 3.6392 179.847 2.82102C180.398 1.99716 181.063 1.37216 181.842 0.946022C182.626 0.519886 183.509 0.306818 184.492 0.306818C185.469 0.306818 186.339 0.502841 187.1 0.894886C187.867 1.28125 188.492 1.82102 188.975 2.5142C189.458 3.20739 189.771 4.00568 189.913 4.90909H187.833C187.64 4.125 187.265 3.47443 186.708 2.95739C186.151 2.44034 185.413 2.18182 184.492 2.18182C183.14 2.18182 182.075 2.76989 181.296 3.94602C180.523 5.12216 180.134 6.77273 180.129 8.89773H180.265C180.583 8.41477 180.961 8.00284 181.398 7.66193C181.842 7.31534 182.33 7.0483 182.864 6.8608C183.398 6.6733 183.964 6.57955 184.56 6.57955C185.56 6.57955 186.475 6.82955 187.305 7.32955C188.134 7.82386 188.799 8.50852 189.299 9.38352C189.799 10.2528 190.049 11.25 190.049 12.375C190.049 13.4545 189.808 14.4432 189.325 15.3409C188.842 16.233 188.163 16.9432 187.288 17.4716C186.418 17.9943 185.396 18.25 184.219 18.2386ZM184.219 16.3636C184.935 16.3636 185.577 16.1847 186.146 15.8267C186.719 15.4687 187.171 14.9886 187.501 14.3864C187.836 13.7841 188.004 13.1136 188.004 12.375C188.004 11.6534 187.842 10.9972 187.518 10.4062C187.2 9.80966 186.759 9.33523 186.197 8.98295C185.64 8.63068 185.004 8.45455 184.288 8.45455C183.748 8.45455 183.245 8.5625 182.779 8.77841C182.313 8.98864 181.904 9.27841 181.552 9.64773C181.205 10.017 180.933 10.4403 180.734 10.9176C180.535 11.3892 180.435 11.8864 180.435 12.4091C180.435 13.1023 180.597 13.75 180.921 14.3523C181.251 14.9545 181.7 15.4403 182.268 15.8097C182.842 16.179 183.492 16.3636 184.219 16.3636ZM200.935 8.33523V10.2102H193.298V8.33523H200.935ZM209.894 18.2386C208.894 18.2386 207.994 18.0398 207.192 17.642C206.391 17.2443 205.749 16.6989 205.266 16.0057C204.783 15.3125 204.519 14.5227 204.474 13.6364H206.519C206.599 14.4261 206.957 15.0795 207.593 15.5966C208.235 16.108 209.002 16.3636 209.894 16.3636C210.61 16.3636 211.246 16.196 211.803 15.8608C212.366 15.5256 212.806 15.0653 213.124 14.4801C213.448 13.8892 213.61 13.2216 213.61 12.4773C213.61 11.7159 213.442 11.0369 213.107 10.4403C212.778 9.83807 212.323 9.36364 211.744 9.01705C211.164 8.67045 210.502 8.49432 209.758 8.48864C209.224 8.48295 208.675 8.56534 208.113 8.7358C207.55 8.90057 207.087 9.11364 206.724 9.375L204.746 9.13636L205.803 0.545454H214.871V2.42045H207.576L206.962 7.56818H207.065C207.423 7.28409 207.871 7.0483 208.411 6.8608C208.951 6.6733 209.513 6.57955 210.099 6.57955C211.167 6.57955 212.119 6.83523 212.954 7.34659C213.795 7.85227 214.454 8.54545 214.931 9.42614C215.414 10.3068 215.656 11.3125 215.656 12.4432C215.656 13.5568 215.406 14.5511 214.906 15.4261C214.411 16.2955 213.729 16.983 212.86 17.4886C211.991 17.9886 211.002 18.2386 209.894 18.2386ZM224.837 18.2386C224.121 18.2273 223.405 18.0909 222.689 17.8295C221.973 17.5682 221.32 17.1278 220.729 16.5085C220.138 15.8835 219.663 15.0398 219.305 13.9773C218.947 12.9091 218.768 11.5682 218.768 9.95455C218.768 8.40909 218.913 7.03977 219.203 5.84659C219.493 4.64773 219.913 3.6392 220.464 2.82102C221.016 1.99716 221.68 1.37216 222.459 0.946022C223.243 0.519886 224.126 0.306818 225.109 0.306818C226.087 0.306818 226.956 0.502841 227.717 0.894886C228.484 1.28125 229.109 1.82102 229.592 2.5142C230.075 3.20739 230.388 4.00568 230.53 4.90909H228.45C228.257 4.125 227.882 3.47443 227.325 2.95739C226.768 2.44034 226.03 2.18182 225.109 2.18182C223.757 2.18182 222.692 2.76989 221.913 3.94602C221.141 5.12216 220.751 6.77273 220.746 8.89773H220.882C221.2 8.41477 221.578 8.00284 222.016 7.66193C222.459 7.31534 222.947 7.0483 223.482 6.8608C224.016 6.6733 224.581 6.57955 225.178 6.57955C226.178 6.57955 227.092 6.82955 227.922 7.32955C228.751 7.82386 229.416 8.50852 229.916 9.38352C230.416 10.2528 230.666 11.25 230.666 12.375C230.666 13.4545 230.425 14.4432 229.942 15.3409C229.459 16.233 228.78 16.9432 227.905 17.4716C227.036 17.9943 226.013 18.25 224.837 18.2386ZM224.837 16.3636C225.553 16.3636 226.195 16.1847 226.763 15.8267C227.337 15.4687 227.788 14.9886 228.118 14.3864C228.453 13.7841 228.621 13.1136 228.621 12.375C228.621 11.6534 228.459 10.9972 228.135 10.4062C227.817 9.80966 227.376 9.33523 226.814 8.98295C226.257 8.63068 225.621 8.45455 224.905 8.45455C224.365 8.45455 223.862 8.5625 223.396 8.77841C222.93 8.98864 222.521 9.27841 222.169 9.64773C221.822 10.017 221.55 10.4403 221.351 10.9176C221.152 11.3892 221.053 11.8864 221.053 12.4091C221.053 13.1023 221.214 13.75 221.538 14.3523C221.868 14.9545 222.317 15.4403 222.885 15.8097C223.459 16.179 224.109 16.3636 224.837 16.3636Z" fill="#717171"/>
</svg>
